     








      Tron 1982 20th Anniversary Collectors Edition DVDRip AC3 X264-BARC0DE








Plot:

A hacker is literally abducted into the world of a computer and forced to
participate in gladiatorial games where his only chance of escape is with the
help of a heroic security program




General Information

Type: Movie

Name: TRON

Movie Information: http://www.imdb.com/title/tt0084827/

Genre: Action | Adventure | Sci-Fi





MEDiA iNFO

General:

Complete name: Tron.1982.20th.Anniversary.Collectors.Edition.DVDRip.AC3.X264-BARC0DE.mkv

Format: Matroska

File size: 1.45 GiB

Duration: 1h 35mn

Overall bit rate: 2 164 Kbps


Video:

ID: 1

Format: AVC
Format/Info: Advanced Video Codec
Format profile: High@L3.0
Format settings, CABAC: Yes
Format settings, ReFrames: 3 frames
Muxing mode: Container profile=Unknown@3.0
Codec ID: V_MPEG4/ISO/AVC
Duration: 1h 35mn
Bit rate: 1 533 Kbps
Width: 720 pixels
Height: 336 pixels
Display aspect ratio: 2.2:1
Frame rate: 23.976 fps
Color space: YUV
Chroma subsampling: 4:2:0
Bit depth: 8 bits
Scan type: Progressive
Bits/(Pixel*Frame): 0.264
Stream size: 1 015 MiB (68%)
Writing library: x264 core 79


Audio #1
ID: 2
Format: AC-3
Format/Info: Audio Coding 3
Mode extension: CM (complete main)
Codec ID: A_AC3
Duration: 1h 35mn
Bit rate mode: Constant
Bit rate: 448 Kbps
Channel(s): 6 channels
Channel positions: Front: L C R, Side: L R, LFE
Sampling rate: 48.0 KHz
Stream size: 307 MiB (21%)
Language: English


Audio #2
ID: 3
Format: AC-3
Format/Info: Audio Coding 3
Mode extension: CM (complete main)
Codec ID: A_AC3
Duration: 1h 35mn
Bit rate mode: Constant
Bit rate: 192 Kbps
Channel(s): 2 channels
Channel positions: Front: L R
Sampling rate: 48.0 KHz
Stream size: 132 MiB (9%)
Language: English


Text
ID: 4
Format: VobSub
Codec ID: S_VOBSUB
Codec ID/Info: The same subtitle format used on DVDs
Language: English




CAST

Jeff Bridges ... Kevin Flynn / Clu
Bruce Boxleitner ... Alan Bradley / Tron
David Warner ... Ed Dillinger / Sark / Master Control Program
Cindy Morgan ... Lora / Yori
Barnard Hughes ... Dr. Walter Gibbs / Dumont
Dan Shor ... Ram / Popcorn Co-Worker
Peter Jurasik ... Crom
Tony Stephano ... Peter / Sark's Lieutenant
Craig Chudy ... Warrior #1
Vince Deadrick Jr. ... Warrior #2 (as Vince Deadrick)
Sam Schatz ... Expert Disc Warrior
Jackson Bostwick ... Head Guard
David S. Cass Sr. ... Factory Guard (as Dave Cass)
Gerald Berns ... Guard #1
Bob Neill ... Guard #2




Menu
00:00:00.000: Chapter 1
00:00:43.076: Chapter 2
00:03:48.595: Chapter 3
00:08:09.005: Chapter 4
00:16:38.130: Chapter 5
00:22:46.164: Chapter 6
00:29:13.042: Chapter 7
00:35:06.971: Chapter 8
00:42:26.377: Chapter 9
00:47:02.936: Chapter 10
00:53:29.573: Chapter 11
00:58:58.713: Chapter 12
01:02:40.593: Chapter 13
01:08:17.304: Chapter 14
01:13:40.627: Chapter 15
01:18:13.150: Chapter 16
01:22:14.975: Chapter 17
01:27:37.463: Chapter 18
01:30:21.711: Chapter 19





Screens:
 
http://img840.imageshack.us/img840/413/vlcsnap2010121817h22m26.png
 
http://img262.imageshack.us/img262/5913/vlcsnap2010121817h22m38.png
 
http://img818.imageshack.us/img818/4082/vlcsnap2010121817h22m47.png





PLZ HELP SEED & ENJOY...